# xmcd
#
# Track frame offsets:
#	150
#	12335
#	39842
#	65785
#	92157
#	111942
#	130395
#	165947
#	188250
#	207940
#
# Disc length: 3091 seconds
#
# Revision: 0
# Processed by: cddbd v1.4PL0 Copyright (c) Steve Scherf et al.
# Submitted via: dBpowerAMP V4.0
#
DISCID=7d0c110a
DTITLE=Joe Zook and Blues Deluxe - Blues with a Capital B
DYEAR=2000
DGENRE=Blues
TTITLE0=All I Can Hear is the Blues
TTITLE1=Double-Time Drinkin'
TTITLE2=Kidney Stew Blues
TTITLE3=The Hawk is Back
TTITLE4=One Good Morning
TTITLE5=The Trenton Stroll
TTITLE6=Just a Dream
TTITLE7=I Wanna Stay
TTITLE8=Good Morning
TTITLE9=Blues with a Capital B
EXTD=
EXTT0=
EXTT1=
EXTT2=
EXTT3=
EXTT4=
EXTT5=
EXTT6=
EXTT7=
EXTT8=
EXTT9=
PLAYORDER=
